<?xml version="1.0" standalone="no"?>
<!DOCTYPE svg PUBLIC "-//W3C//DTD SVG 20010904//EN"
 "http://www.w3.org/TR/2001/REC-SVG-20010904/DTD/svg10.dtd">
<svg version="1.0" xmlns="http://www.w3.org/2000/svg"
 width="398.000000pt" height="347.000000pt" viewBox="0 0 398.000000 347.000000"
 preserveAspectRatio="xMidYMid meet">

<g transform="translate(0.000000,347.000000) scale(0.100000,-0.100000)"
fill="#000000" stroke="none">
<path d="M0 3450 c0 -20 7 -20 1990 -20 1983 0 1990 0 1990 20 0 20 -7 20
-1990 20 -1983 0 -1990 0 -1990 -20z"/>
<path d="M2053 2823 c9 -2 23 -2 30 0 6 3 -1 5 -18 5 -16 0 -22 -2 -12 -5z"/>
<path d="M2118 2813 c7 -3 16 -2 19 1 4 3 -2 6 -13 5 -11 0 -14 -3 -6 -6z"/>
<path d="M1705 2794 c-98 -22 -240 -72 -305 -108 -126 -69 -214 -145 -308
-265 -114 -144 -165 -242 -203 -396 -19 -77 -23 -116 -23 -265 0 -160 3 -182
26 -259 15 -46 31 -88 36 -93 6 -6 4 9 -5 33 -25 75 -45 255 -38 354 18 268
66 414 196 592 107 148 321 301 481 343 21 6 46 14 55 17 11 4 14 2 9 -5 -4
-7 -14 -12 -22 -12 -26 0 -146 -51 -206 -88 -32 -19 -58 -36 -58 -38 0 -1 44
20 99 48 130 66 257 97 421 105 113 5 135 2 230 -21 161 -41 239 -75 383 -171
54 -36 46 -24 -16 23 -67 52 -192 118 -252 133 -25 6 -44 14 -41 16 17 18 234
-79 297 -132 17 -14 34 -25 38 -25 3 0 41 -33 84 -73 42 -40 77 -69 77 -66 0
13 -147 157 -191 187 -102 69 -212 117 -349 153 -112 29 -315 35 -415 13z m2
-30 c-3 -3 -12 -4 -19 -1 -8 3 -5 6 6 6 11 1 17 -2 13 -5z"/>
<path d="M2158 2803 c7 -3 16 -2 19 1 4 3 -2 6 -13 5 -11 0 -14 -3 -6 -6z"/>
<path d="M2230 2777 c155 -69 281 -140 328 -184 7 -7 15 -13 17 -13 3 0 2 6
-1 13 -15 33 -199 141 -303 178 -59 21 -80 24 -41 6z"/>
<path d="M1776 2733 c-111 -14 -238 -51 -300 -88 -22 -14 -37 -25 -32 -25 5 0
3 -6 -3 -13 -8 -10 -4 -20 18 -41 18 -17 27 -35 24 -45 -4 -12 -3 -13 5 -2 7
10 11 10 14 1 2 -7 10 -11 16 -9 8 3 1 17 -20 39 -18 19 -29 32 -24 28 5 -4
15 -3 23 3 10 9 13 7 13 -9 0 -31 26 -47 55 -34 14 7 25 9 25 7 0 -12 -36 -45
-50 -45 -9 0 -16 -8 -16 -19 0 -25 35 -35 73 -20 45 17 144 38 138 29 -3 -4
-20 -11 -40 -14 -150 -28 -378 -208 -456 -361 -68 -132 -84 -195 -84 -335 1
-109 4 -136 29 -215 69 -217 216 -389 404 -472 101 -44 117 -53 104 -53 -7 0
-10 -4 -7 -10 3 -5 2 -10 -3 -10 -11 0 -18 -129 -10 -172 6 -30 -123 -15 -247
28 -53 19 -160 78 -170 94 -3 6 -11 10 -16 10 -15 0 55 -66 87 -83 16 -8 45
-18 64 -22 42 -9 111 -44 90 -45 -27 -2 23 -19 58 -19 17 -1 32 -6 32 -12 0
-8 -13 -10 -37 -5 -21 3 -85 13 -142 22 -57 8 -120 21 -140 29 -20 7 -60 19
-89 25 -29 7 -51 14 -49 16 2 3 43 -5 91 -16 48 -11 99 -20 114 -20 16 0 33
-5 39 -11 6 -6 17 -9 25 -6 9 3 7 7 -7 13 -11 4 -24 13 -28 21 -4 7 -14 13
-22 13 -24 0 -317 101 -370 128 -27 13 -77 50 -110 81 -102 97 -243 211 -260
211 -3 0 -5 -17 -5 -37 -1 -21 -6 -67 -13 -103 -13 -71 -11 -69 -130 -120
l-51 -22 75 -72 c41 -40 103 -92 138 -115 67 -46 66 -44 46 -116 -5 -17 4 -25
52 -47 104 -48 172 -78 178 -78 4 0 21 -6 38 -14 34 -14 200 -62 333 -95 74
-19 304 -63 379 -74 17 -2 3 -5 -30 -6 -75 -2 -102 -16 -48 -25 21 -3 47 -14
58 -22 l20 -17 -20 8 c-11 4 -41 10 -67 12 -48 6 -48 5 -48 -24 0 -17 -3 -44
-6 -59 -5 -27 -8 -29 -46 -26 l-40 4 6 51 c4 28 8 55 9 61 1 6 -8 12 -20 14
-19 3 -22 -3 -27 -40 -4 -24 -7 -59 -9 -78 l-2 -34 80 -14 c44 -7 102 -11 129
-9 45 4 48 3 30 -10 -14 -11 -38 -14 -99 -10 l-80 6 60 -17 c50 -13 118 -16
415 -16 237 0 365 4 385 11 29 11 29 11 -17 12 -27 1 -48 6 -48 11 0 6 3 9 8
9 24 -4 32 4 32 31 0 23 5 30 19 30 10 0 29 8 41 18 18 15 22 25 16 46 -9 35
-41 49 -90 39 l-39 -9 1 -79 c0 -55 -2 -72 -8 -55 -4 14 -8 49 -9 78 -1 49 -3
52 -26 52 -18 0 -28 -7 -35 -24 -11 -30 -30 -43 -30 -21 0 9 4 14 9 11 8 -5
25 29 22 47 -1 4 4 7 10 7 5 0 7 5 4 10 -3 6 -36 11 -73 11 l-67 2 90 8 c236
22 519 84 778 170 55 18 237 105 283 136 20 12 21 17 10 45 -10 29 -9 32 24
56 54 41 200 184 200 197 0 6 -31 26 -70 45 -69 33 -70 34 -89 94 -11 34 -23
80 -26 104 -4 23 -10 42 -13 42 -4 0 -52 -41 -107 -92 -143 -130 -230 -186
-360 -233 -293 -106 -481 -156 -580 -155 -27 1 -28 2 -12 14 9 7 17 19 17 27
1 8 7 31 15 53 9 26 11 46 5 62 -7 19 -6 24 5 24 8 0 15 8 15 18 0 9 3 28 7
41 6 22 4 23 -28 16 -24 -5 -11 5 45 35 102 53 188 115 252 182 50 52 101 126
97 140 -2 4 6 26 17 50 10 24 31 93 45 153 29 122 29 178 0 320 -42 203 -189
367 -459 513 -5 3 -29 11 -55 18 l-46 14 45 -6 c65 -7 220 -88 295 -153 l30
-26 -20 25 c-11 14 -29 33 -40 42 -15 13 -20 29 -21 67 0 27 3 48 6 46 4 -3
12 7 18 20 9 19 9 23 -3 19 -10 -4 -12 0 -8 15 3 12 10 18 17 14 6 -4 5 1 -3
10 -7 9 -18 14 -24 10 -6 -3 -7 -1 -3 6 9 14 42 6 71 -18 20 -16 20 -16 1 6
-10 12 -52 40 -95 62 -191 99 -348 129 -545 104z m-236 -117 c0 -2 -7 -7 -16
-10 -8 -3 -12 -2 -9 4 6 10 25 14 25 6z m48 -21 c6 -14 10 -25 9 -25 -2 0 -14
11 -27 25 -18 19 -20 25 -8 25 8 0 20 -11 26 -25z m717 -16 c5 -16 -1 -29 -23
-52 -30 -29 -31 -30 -56 -13 -14 9 -26 22 -26 28 0 6 8 4 18 -5 10 -10 23 -17
28 -17 12 1 54 36 54 46 0 4 -10 19 -22 32 l-23 25 22 -12 c12 -6 25 -21 28
-32z m-835 21 c0 -5 -7 -10 -16 -10 -8 0 -12 5 -9 10 3 6 10 10 16 10 5 0 9
-4 9 -10z m237 -166 c-3 -3 -12 -4 -19 -1 -8 3 -5 6 6 6 11 1 17 -2 13 -5z
m486 -35 c198 -99 323 -242 383 -436 23 -74 27 -106 27 -203 0 -194 -60 -346
-189 -480 -65 -67 -196 -154 -249 -165 -18 -4 2 11 50 36 112 60 247 195 298
299 41 84 77 226 77 310 0 71 -32 223 -59 286 -65 146 -198 274 -372 358 -30
14 -48 26 -41 26 7 0 41 -14 75 -31z m-638 -32 c-35 -19 -95 -67 -146 -117
-98 -98 -144 -180 -180 -319 -47 -187 -3 -418 110 -571 75 -103 203 -200 324
-245 65 -24 53 -30 -14 -6 -91 31 -170 81 -245 155 -91 91 -140 169 -177 281
-27 81 -30 103 -30 215 0 150 16 221 75 340 32 64 60 103 113 155 69 68 184
145 215 145 8 0 -12 -15 -45 -33z m440 -141 c19 -8 54 -34 78 -58 88 -89 89
-246 0 -334 -50 -50 -60 -41 -14 14 49 59 61 89 61 158 0 73 -18 112 -75 162
-94 83 -191 80 -288 -7 -72 -65 -91 -183 -43 -265 23 -40 66 -84 112 -113 11
-8 3 -7 -21 2 -137 52 -178 242 -80 371 54 71 186 105 270 70z m25 -61 c43
-30 73 -77 83 -132 8 -39 -15 -121 -44 -157 -27 -34 -45 -34 -22 1 15 23 16
26 2 21 -32 -12 -47 39 -37 122 2 14 -1 28 -7 32 -15 11 -173 9 -180 -2 -3 -5
1 -10 10 -10 12 0 15 -6 10 -20 -6 -19 -2 -20 69 -20 68 0 76 -2 76 -19 0 -23
-25 -30 -105 -32 -33 -1 -50 -4 -37 -6 14 -3 22 -12 22 -24 0 -15 -5 -19 -19
-14 -26 8 -58 -40 -40 -61 23 -28 -8 -13 -39 19 -32 33 -62 102 -62 142 0 61
70 159 130 184 14 6 53 10 86 8 49 -2 71 -9 104 -32z m-571 -151 c30 -50 34
-67 39 -148 6 -110 15 -125 110 -189 83 -56 100 -73 84 -89 -9 -9 -8 -15 1
-27 10 -12 9 -13 -3 -6 -12 7 -13 6 -5 -6 14 -18 10 -82 -4 -87 -7 -2 5 -17
25 -33 54 -43 34 -36 -79 27 -110 62 -165 107 -199 162 -21 34 -22 46 -18 152
2 63 4 157 5 208 0 50 2 92 5 92 3 0 20 -25 39 -56z m957 -46 c4 -46 7 -135 7
-199 -1 -103 -4 -121 -26 -165 -21 -41 -37 -56 -103 -95 -118 -70 -136 -77
-94 -41 19 17 40 31 46 32 7 0 14 7 18 15 6 16 -14 16 -26 0 -4 -6 -8 -2 -8 8
0 9 -6 17 -12 17 -10 0 -10 2 -1 8 7 4 10 26 8 56 -2 31 0 44 6 35 8 -13 13
-5 10 15 -1 4 6 15 16 23 10 7 -6 2 -34 -12 -66 -32 -68 -20 -5 19 26 16 64
42 84 58 l37 29 0 85 c0 70 5 96 25 140 14 30 29 54 34 54 6 0 13 -37 18 -82z
m-482 -36 c2 -4 -4 -9 -15 -9 -10 -1 -19 2 -19 8 0 11 27 12 34 1z m56 4 c0
-3 -4 -8 -10 -11 -5 -3 -10 -1 -10 4 0 6 5 11 10 11 6 0 10 -2 10 -4z m-53
-32 c-3 -3 -12 -4 -19 -1 -8 3 -5 6 6 6 11 1 17 -2 13 -5z m-207 -119 c0 -8
-2 -15 -4 -15 -2 0 -6 7 -10 15 -3 8 -1 15 4 15 6 0 10 -7 10 -15z m-13 -137
c-2 -13 -4 -3 -4 22 0 25 2 35 4 23 2 -13 2 -33 0 -45z m40 -564 c-3 -3 -12
-4 -19 -1 -8 3 -5 6 6 6 11 1 17 -2 13 -5z m66 -11 c-7 -2 -21 -2 -30 0 -10 3
-4 5 12 5 17 0 24 -2 18 -5z m-699 -154 c5 -5 -5 -4 -24 1 -18 5 -35 12 -39
16 -9 9 53 -7 63 -17z m146 -39 c20 -6 21 -8 5 -8 -11 0 -33 4 -50 8 -27 7
-27 8 -5 8 14 0 36 -4 50 -8z m1367 -6 c-3 -3 -12 -4 -19 -1 -8 3 -5 6 6 6 11
1 17 -2 13 -5z m-739 -29 c-3 -3 -9 2 -12 12 -6 14 -5 15 5 6 7 -7 10 -15 7
-18z m-819 -10 c59 -30 40 -70 -22 -47 -50 19 -51 3 -3 -48 26 -27 46 -55 46
-63 0 -26 -49 -61 -84 -60 -37 1 -81 26 -96 54 -15 27 24 35 66 13 48 -26 52
-11 10 36 -76 84 -17 167 83 115z m1756 -87 c27 -88 28 -118 2 -118 -9 0 -26
36 -46 98 -36 114 -36 109 -13 115 24 5 26 2 57 -95z m-328 86 c-3 -3 -12 -4
-19 -1 -8 3 -5 6 6 6 11 1 17 -2 13 -5z m-44 -11 c-7 -2 -21 -2 -30 0 -10 3
-4 5 12 5 17 0 24 -2 18 -5z m-60 -10 c-7 -2 -19 -2 -25 0 -7 3 -2 5 12 5 14
0 19 -2 13 -5z m335 -65 c33 -115 37 -144 17 -152 -24 -9 -32 -1 -39 39 -8 40
-10 41 -60 20 -37 -16 -37 -16 -30 -60 6 -43 5 -45 -20 -45 -20 0 -27 6 -32
28 -3 15 -13 54 -21 87 -24 92 -23 110 7 110 20 0 26 -7 33 -38 10 -41 15 -42
81 -18 23 9 24 11 11 48 -15 43 -12 53 14 53 14 0 23 -17 39 -72z m-1484 36
c9 -3 16 -17 16 -31 0 -13 7 -56 15 -96 9 -40 18 -82 21 -95 4 -21 1 -23 -23
-20 -20 2 -29 9 -31 25 -2 15 -13 25 -30 29 -15 4 -33 11 -40 17 -9 7 -18 5
-31 -8 -18 -16 -61 -14 -61 3 0 12 131 182 140 182 5 0 15 -3 24 -6z m394 -1
c-10 -2 -26 -2 -35 0 -10 3 -2 5 17 5 19 0 27 -2 18 -5z m570 0 c-10 -2 -26
-2 -35 0 -10 3 -2 5 17 5 19 0 27 -2 18 -5z m-792 -46 c1 -1 11 -21 23 -44 12
-24 25 -43 29 -43 4 0 20 16 35 35 21 26 35 35 59 35 l31 0 -7 -67 c-12 -117
-25 -163 -47 -163 -27 0 -32 19 -21 81 6 30 8 56 6 58 -2 3 -19 -10 -38 -28
l-33 -32 -23 36 c-12 20 -24 34 -26 32 -2 -2 -7 -28 -12 -58 -7 -49 -10 -54
-32 -51 -13 1 -25 3 -26 5 -1 1 5 47 12 102 7 55 13 104 14 109 0 6 51 0 56
-7z m1068 -26 c32 -33 43 -91 27 -134 -13 -32 -70 -62 -142 -72 l-46 -7 -7 64
c-3 34 -9 86 -12 115 -6 51 -6 52 22 56 16 2 52 5 80 6 43 1 54 -3 78 -28z
m-721 -18 c40 -11 49 -93 13 -120 -23 -17 -23 -19 -8 -48 10 -16 20 -31 25
-33 17 -8 5 -21 -19 -19 -18 2 -34 15 -53 42 -15 22 -31 40 -36 40 -6 0 -11
-17 -13 -37 -3 -34 -6 -38 -30 -38 l-27 0 3 102 c2 57 5 109 7 116 4 10 19 12
62 7 32 -4 66 -9 76 -12z m255 -76 c3 -89 -14 -137 -50 -137 l-22 0 21 15 c11
8 23 25 26 37 l6 23 -17 -21 c-9 -12 -26 -24 -37 -27 -18 -6 -17 -5 3 9 20 15
22 25 22 99 0 79 1 82 23 80 20 -1 22 -7 25 -78z m226 64 c43 -48 39 -144 -9
-175 -13 -9 -56 -19 -94 -22 l-71 -7 0 89 c0 49 -3 99 -6 112 -6 22 -5 22 78
22 70 0 88 -3 102 -19z m-365 -28 l-2 -38 -6 35 c-6 32 -7 34 -18 15 -12 -20
-12 -19 -13 3 0 15 6 22 20 22 17 0 20 -6 19 -37z m-2 -75 c-3 -7 -5 -2 -5 12
0 14 2 19 5 13 2 -7 2 -19 0 -25z m60 -94 c-3 -3 -12 -4 -19 -1 -8 3 -5 6 6 6
11 1 17 -2 13 -5z m343 -164 c0 -13 -28 -25 -38 -16 -3 4 0 11 8 16 20 13 30
12 30 0z m-704 -24 c23 -18 10 -47 -24 -53 -19 -2 -22 2 -22 32 0 38 14 44 46
21z m501 -78 c-3 -7 -5 -2 -5 12 0 14 2 19 5 13 2 -7 2 -19 0 -25z"/>
<path d="M1812 2160 c-44 -32 -59 -51 -19 -26 14 10 27 12 36 7 8 -5 21 -7 30
-3 9 3 13 2 9 -3 -4 -4 -3 -16 2 -26 7 -12 6 -19 -3 -23 -6 -2 16 -4 51 -4 35
1 59 4 54 7 -12 8 4 51 18 51 6 0 20 -5 31 -10 13 -7 19 -7 19 -1 0 6 -22 22
-50 36 -69 35 -125 34 -178 -5z"/>
<path d="M2313 1560 c-13 -5 -23 -11 -23 -14 0 -7 40 6 46 15 6 10 6 10 -23
-1z"/>
<path d="M1203 690 c-17 -26 -16 -40 1 -40 20 0 24 10 17 38 -6 22 -6 22 -18
2z"/>
<path d="M2371 681 c-10 -7 -12 -22 -7 -65 4 -31 11 -56 15 -56 24 0 73 25 81
40 11 21 -3 69 -23 82 -16 10 -49 10 -66 -1z"/>
<path d="M1686 652 c-12 -11 -6 -40 10 -46 19 -7 56 12 51 27 -4 12 -53 28
-61 19z"/>
<path d="M1982 621 c2 -34 6 -61 11 -61 11 0 8 108 -4 115 -7 5 -9 -13 -7 -54z"/>
<path d="M2114 619 c3 -17 6 -44 6 -60 0 -32 23 -39 63 -18 29 15 37 28 37 60
0 36 -18 49 -68 49 -44 0 -44 0 -38 -31z"/>
<path d="M1545 270 c-3 -6 1 -7 9 -4 18 7 21 14 7 14 -6 0 -13 -4 -16 -10z"/>
<path d="M1385 2720 c-3 -6 1 -7 9 -4 18 7 21 14 7 14 -6 0 -13 -4 -16 -10z"/>
<path d="M1310 2675 c-14 -8 -20 -14 -15 -14 6 0 21 6 35 14 14 8 21 14 15 14
-5 0 -21 -6 -35 -14z"/>
<path d="M1245 2630 c-3 -6 1 -7 9 -4 18 7 21 14 7 14 -6 0 -13 -4 -16 -10z"/>
<path d="M1448 2523 c7 -3 16 -2 19 1 4 3 -2 6 -13 5 -11 0 -14 -3 -6 -6z"/>
<path d="M1520 2442 c0 -5 -12 -14 -26 -21 -15 -6 -25 -14 -22 -16 6 -6 77 28
78 38 0 4 -7 7 -15 7 -8 0 -15 -4 -15 -8z"/>
<path d="M1237 2396 c-21 -32 -21 -39 1 -59 17 -16 20 -15 42 8 l24 26 -25 25
-26 25 -16 -25z"/>
<path d="M2510 2395 l-24 -26 27 -27 27 -27 33 33 32 33 -24 20 c-31 25 -43
24 -71 -6z"/>
<path d="M2356 2395 c4 -8 11 -15 16 -15 6 0 5 6 -2 15 -7 8 -14 15 -16 15 -2
0 -1 -7 2 -15z"/>
<path d="M2710 2375 c6 -11 24 -40 40 -65 158 -242 204 -587 115 -866 -39
-124 -111 -247 -198 -340 -43 -46 -73 -84 -67 -84 27 0 137 130 191 226 74
131 94 182 120 300 58 257 9 527 -134 744 -40 60 -86 118 -67 85z"/>
<path d="M2840 2245 c0 -5 5 -17 10 -25 5 -8 10 -10 10 -5 0 6 -5 17 -10 25
-5 8 -10 11 -10 5z"/>
<path d="M2680 2060 l-25 -19 26 -27 c23 -23 29 -24 48 -13 26 17 27 40 3 62
-23 21 -21 21 -52 -3z"/>
<path d="M862 2050 c0 -14 2 -19 5 -12 2 6 2 18 0 25 -3 6 -5 1 -5 -13z"/>
<path d="M1026 2051 c-21 -23 -16 -45 13 -61 18 -9 23 -7 33 15 21 46 -15 81
-46 46z"/>
<path d="M852 2000 c0 -14 2 -19 5 -12 2 6 2 18 0 25 -3 6 -5 1 -5 -13z"/>
<path d="M2941 1944 c0 -11 3 -14 6 -6 3 7 2 16 -1 19 -3 4 -6 -2 -5 -13z"/>
<path d="M2952 1870 c0 -14 2 -19 5 -12 2 6 2 18 0 25 -3 6 -5 1 -5 -13z"/>
<path d="M1000 1681 c-16 -31 -12 -51 15 -63 28 -12 50 0 61 34 12 39 -56 65
-76 29z"/>
<path d="M2725 1680 c-15 -17 -16 -24 -7 -45 16 -35 55 -34 71 2 11 24 10 29
-9 45 -28 23 -33 22 -55 -2z"/>
<path d="M2861 1594 c0 -11 3 -14 6 -6 3 7 2 16 -1 19 -3 4 -6 -2 -5 -13z"/>
<path d="M951 1484 c0 -11 3 -14 6 -6 3 7 2 16 -1 19 -3 4 -6 -2 -5 -13z"/>
<path d="M940 1381 c0 -18 66 -148 96 -188 13 -17 24 -36 24 -41 0 -4 11 -19
25 -32 37 -35 31 -18 -26 68 -29 42 -67 106 -85 142 -18 36 -33 59 -34 51z"/>
<path d="M1160 1305 c-12 -14 -8 -27 18 -58 14 -16 16 -15 35 15 18 30 18 32
1 45 -23 17 -39 16 -54 -2z"/>
<path d="M2596 1307 c-18 -13 -18 -15 -1 -40 14 -22 20 -25 37 -16 26 14 33
36 18 54 -15 19 -31 19 -54 2z"/>
<path d="M2345 1057 c-26 -14 -45 -33 -45 -45 0 -4 11 -19 24 -31 23 -22 25
-22 50 -6 30 20 34 55 8 78 -13 12 -21 13 -37 4z"/>
<path d="M1403 1031 c-28 -23 -29 -33 -5 -54 13 -12 26 -14 47 -8 37 9 44 36
16 62 -25 23 -30 23 -58 0z"/>
<path d="M2485 940 c-10 -11 -24 -20 -32 -20 -7 0 -13 -4 -13 -10 0 -5 3 -10
8 -10 14 0 72 40 72 50 0 16 -15 12 -35 -10z"/>
<path d="M901 483 c-13 -38 -28 -80 -34 -95 -13 -33 -1 -49 56 -77 76 -35 93
-33 32 4 -33 20 -53 34 -43 31 21 -6 31 4 18 19 -13 15 4 155 20 165 8 5 7 9
-5 14 -9 3 -18 6 -19 6 -1 0 -12 -30 -25 -67z"/>
<path d="M2861 514 c0 -11 3 -14 6 -6 3 7 2 16 -1 19 -3 4 -6 -2 -5 -13z"/>
<path d="M2703 458 c-6 -7 -13 -21 -17 -32 -6 -18 -7 -18 -25 -2 -14 13 -28
16 -55 11 -20 -4 -39 -11 -41 -15 -3 -5 1 -27 9 -49 7 -23 11 -41 7 -41 -4 0
-22 16 -41 35 -43 44 -74 47 -66 8 3 -16 8 -48 12 -73 8 -56 11 -61 30 -53 15
5 14 20 -2 88 -4 14 7 7 35 -22 22 -24 49 -43 60 -43 24 0 24 -3 6 80 -7 36
-12 66 -10 68 8 8 75 -62 75 -78 0 -30 11 -49 25 -44 8 4 11 19 8 48 -4 31 1
54 16 84 21 40 21 42 2 42 -10 0 -23 -6 -28 -12z"/>
<path d="M1056 427 c-51 -51 -20 -121 59 -134 30 -5 41 -2 51 12 24 32 17 62
-13 68 -35 7 -51 -7 -33 -28 10 -12 10 -15 -2 -15 -8 0 -22 6 -32 13 -38 27 4
84 44 59 26 -16 50 -15 50 2 0 20 -24 36 -63 43 -29 4 -40 1 -61 -20z"/>
<path d="M1217 387 c-10 -6 -20 -29 -23 -49 -9 -51 28 -88 85 -88 46 0 71 26
71 73 0 59 -85 100 -133 64z m86 -48 c16 -26 1 -49 -32 -49 -31 0 -45 20 -35
52 7 23 52 21 67 -3z"/>
<path d="M2374 382 c-13 -8 -41 -158 -32 -167 10 -11 38 7 38 25 0 26 39 33
59 9 9 -11 21 -16 28 -11 11 7 6 19 -50 129 -12 24 -24 28 -43 15z m36 -73 c0
-5 -4 -9 -10 -9 -5 0 -10 7 -10 16 0 8 5 12 10 9 6 -3 10 -10 10 -16z"/>
<path d="M2855 319 c-46 -20 -58 -28 -35 -23 34 6 136 53 115 53 -5 0 -41 -14
-80 -30z"/>
</g>
</svg>
